<?xml version="1.0" encoding="UTF-8"?>
<svg version="1.1" viewBox="0 0 2048 2048" width="512" height="512" xmlns="http://www.w3.org/2000/svg">
<path transform="translate(506)" d="m0 0h109v1l45 7 34 7 36 10 28 10 29 12 29 14 23 13 25 16 19 14 16 13 13 11 4 3v2l4 2 28 28 7 8 11 13 11 14 11 15 9 13 14 22 12 21h2l10-18 16-25 11-16 9-12 11-14 12-14 11-12 7-8 11-11 8-7 11-10 11-9 18-14 10-7 12-8 21-13 18-10 16-8 21-10 34-13 28-9 31-8 42-8 36-5h106v1l38 7 26 7 25 9 16 7 17 8 21 12 15 10 16 12 14 11 15 14 17 17 18 22 13 18 8 13 12 21 11 23 10 26 8 28 5 24 4 31 1 18v19l-1 21-5 36-7 30-9 27-10 24-12 24-13 21-12 17-11 14-4 6h94l22 2 20 4 21 7 25 12 15 10 13 10 15 14 9 10 13 18 9 16 7 15 8 24 3 13 2 1v259l-2 1-5 21-7 20-8 16-7 12-12 16-11 12-9 9-14 11-15 10-16 9-20 9h-2v727l-2 22-5 23-6 18-12 25-12 18-9 11-9 10-7 7-11 9-16 11-16 9-16 7-18 6-25 6h-1470l-1-2-28-7-15-6-16-8-14-8-13-10-14-12-7-7-9-11-9-12-8-13-8-16-8-20-6-26-2-18-1-732-8-4-14-6-14-8-12-8-14-11-12-11-8-8-11-14-7-10-9-16-7-16-5-16-5-21-1-3v-249l4-15 5-17 6-16 10-20 8-12 10-13 14-15 12-11 17-12 15-9 17-8 18-6 23-5 22-2h95l-10-13-13-18-11-17-11-19-13-28-7-18-9-31-5-23-4-29-1-13v-40l4-35 6-29 8-27 10-27 9-19 11-20 13-20 13-18 11-13 1-2h2l2-4 9-9 5-6 8-7 14-13 20-15 13-9 18-11 23-12 20-9 19-7 28-8 36-7 9-1zm22 121-27 3-25 6-22 8-23 11-20 13-12 9-14 12-9 9v2h-2l-9 11-11 14-13 21-11 23-9 27-5 22-2 18-1 26 2 23 4 22 5 19 8 21 8 17 11 18 12 16 12 14 13 13 8 7 19 14 15 9 15 8 19 8 20 6 25 5 19 2 99 1h202l134-1v-77l-3-30-5-29-7-29-8-27-13-34-12-26-13-23-10-16-12-17-11-14-9-10-7-8-20-20-11-9-14-11-17-12-22-13-21-11-26-11-19-7-32-9-34-7-29-4-24-2-24-1zm953 0-32 2-39 5-34 7-31 9-27 10-24 11-21 11-22 14-16 12-16 13-16 15-11 11-7 8-9 11-11 14-17 25-18 33-11 24-11 29-9 31-7 29-4 22-3 29-1 24v58l90 1h201l145-1 19-2 25-5 27-9 25-12 15-9 14-10 11-9 15-14 12-13 13-18 12-20 10-21 9-27 4-17 3-24v-36l-3-23-5-22-7-21-9-20-10-18-11-16-9-11-12-13-8-8-11-9-13-10-25-15-22-10-21-7-22-5-15-2-13-1zm-1293 578-13 1-13 4-13 7-13 12-8 12-5 13-2 10-1 31v165l1 16 4 16 7 13 11 12 9 7 12 6 17 4 17 1h506l2-2v-328zm640 0-1 4v326h393v-330zm514 0-1 219v105l1 6h460l65-1 16-4 14-7 10-8 9-10 7-14 4-16v-210l-4-17-8-15-11-12-14-9-13-5-14-2zm-1092 450-1 1v716l2 12 5 12 6 10 9 10 11 8 13 6 13 3 456 1 6-1 1-777-1-1zm642 0-1 778 1 1h263l1-1v-778zm386 0-1 4v774l4 1 459-1 16-4 13-7 10-8 9-11 7-14 3-12 1-7v-715z"/>
</svg>
