<svg xmlns="http://www.w3.org/2000/svg" fill="none" viewBox="0.9180480072463719 0.9383999999999938 141.20494791666667 136.5624676056338" style="max-height: 500px" width="141.20494791666667" height="136.5624676056338">
<rect stroke="#001D3D" height="140" width="143"></rect>
<path stroke-linejoin="round" stroke-linecap="round" stroke-width="10" stroke="#001D3D" d="M107.25 46.6667C117.122 46.6667 125.125 38.8317 125.125 29.1667C125.125 19.5018 117.122 11.6667 107.25 11.6667C97.3779 11.6667 89.375 19.5018 89.375 29.1667C89.375 38.8317 97.3779 46.6667 107.25 46.6667Z"></path>
<path stroke-linejoin="round" stroke-linecap="round" stroke-width="10" stroke="#001D3D" d="M35.75 128.333C45.6221 128.333 53.625 120.498 53.625 110.833C53.625 101.168 45.6221 93.3333 35.75 93.3333C25.8779 93.3333 17.875 101.168 17.875 110.833C17.875 120.498 25.8779 128.333 35.75 128.333Z"></path>
<path stroke-linejoin="round" stroke-linecap="round" stroke-width="10" stroke="#001D3D" d="M71.5 29.1667H50.6458C39.1283 29.1667 29.7916 38.3076 29.7916 49.5834C29.7916 60.8592 39.1283 70.0001 50.6458 70.0001H92.3541C103.872 70.0001 113.208 79.1409 113.208 90.4167C113.208 101.693 103.872 110.833 92.3541 110.833H71.5"></path>
</svg>