<svg width="80" height="80" viewBox="0 0 80 80" fill="none" xmlns="http://www.w3.org/2000/svg">
<path fill-rule="evenodd" clip-rule="evenodd" d="M35.4635 0.14706C28.6524 0.979326 21.8664 3.7411 16.2217 7.97851C14.0147 9.6352 10.4174 13.1268 8.7824 15.1991C1.15535 24.8659 -1.66224 36.8885 0.95315 48.607C1.66138 51.7803 3.42053 56.6395 4.31859 57.9027C5.12565 59.038 6.95575 59.3689 8.24441 58.6123C9.26009 58.0161 9.69502 57.2524 9.69361 56.0675C9.69283 55.2932 9.56456 54.8331 8.97222 53.4786C7.62671 50.4015 6.73899 47.167 6.33475 43.8679C6.11815 42.1001 6.1183 38.0282 6.33506 36.2622C7.2906 28.4748 10.8299 21.4473 16.6455 15.7905C22.2247 10.3635 28.7075 7.24226 36.4779 6.24197C38.362 5.99927 43.3901 6.14282 45.3305 6.49455C47.7608 6.93493 50.563 7.7708 52.9591 8.76983C55.4725 9.81781 56.0987 9.90676 57.2019 9.37179C59.1138 8.44461 59.3918 5.5691 57.6976 4.24407C56.8041 3.54515 52.1937 1.81238 49.2931 1.08506C46.1637 0.300649 44.4694 0.102035 40.4753 0.0518321C38.3648 0.0253189 36.1095 0.068148 35.4635 0.14706ZM75.6364 0.293119C75.2205 0.499891 62.4648 13.177 37.7119 37.9842C-2.6267 78.4111 -0.0514076 75.7163 0.104115 77.3383C0.287674 79.2507 2.28332 80.4562 4.2395 79.836C4.73708 79.6782 11.425 73.0562 41.9278 42.519C62.3237 22.1002 79.1943 5.13077 79.4179 4.80916C80.1735 3.72227 80.1083 2.08488 79.2713 1.13009C78.3094 0.0323785 76.8408 -0.305705 75.6364 0.293119ZM72.0277 21.4556C70.8748 21.98 70.1157 23.2698 70.2743 24.4343C70.3169 24.7478 70.6687 25.7455 71.0557 26.6515C72.7026 30.5057 73.5821 34.1587 73.826 38.1561C74.4146 47.8021 70.6191 57.336 63.4285 64.2734C53.4481 73.9024 39.417 76.6 26.824 71.3112C24.7462 70.4384 24.3815 70.3578 23.5344 70.5837C21.6175 71.0947 20.6786 73.089 21.5057 74.8931C21.8915 75.7346 22.164 75.9511 23.7784 76.6982C26.8632 78.1259 31.0293 79.2586 35.011 79.7524C37.2611 80.0314 42.5312 80.0714 44.6257 79.8254C53.9394 78.7311 62.0153 74.7094 68.5885 67.8921C78.3462 57.7717 82.1925 43.5444 78.7771 30.204C78.024 27.2631 76.6245 23.6248 75.7681 22.382C74.9947 21.2596 73.3522 20.8528 72.0277 21.4556Z" fill="#5B5B5B"/>
</svg>
